<?xml version="1.0" encoding="UTF-8" standalone="no"?>
<svg
   xmlns:dc="http://purl.org/dc/elements/1.1/"
   xmlns:cc="http://creativecommons.org/ns#"
   xmlns:rdf="http://www.w3.org/1999/02/22-rdf-syntax-ns#"
   xmlns:svg="http://www.w3.org/2000/svg"
   xmlns="http://www.w3.org/2000/svg"
   xmlns:sodipodi="http://sodipodi.sourceforge.net/DTD/sodipodi-0.dtd"
   xmlns:inkscape="http://www.inkscape.org/namespaces/inkscape"
   width="210mm"
   height="297mm"
   viewBox="0 0 210 297"
   version="1.1"
   id="svg2256"
   inkscape:version="1.0.1 (3bc2e813f5, 2020-09-07)"
   sodipodi:docname="cartaMotivacion.svg"
   inkscape:export-filename="C:\Users\Carmen\Documents\STUDING Technologic Massachusetts\webStudiando\RememberFront\bigbet\cartaMotivacionGris.png"
   inkscape:export-xdpi="96"
   inkscape:export-ydpi="96">
  <defs
     id="defs2250">
    <inkscape:path-effect
       effect="powerstroke"
       id="path-effect2499"
       is_visible="true"
       lpeversion="1"
       offset_points="1.0828352,0.77675205"
       sort_points="true"
       interpolator_type="CentripetalCatmullRom"
       interpolator_beta="0.75"
       start_linecap_type="round"
       linejoin_type="spiro"
       miter_limit="4"
       scale_width="1"
       end_linecap_type="round" />
    <inkscape:path-effect
       effect="simplify"
       id="path-effect2497"
       is_visible="true"
       lpeversion="1"
       steps="1"
       threshold="0.0088205129"
       smooth_angles="0"
       helper_size="0"
       simplify_individual_paths="false"
       simplify_just_coalesce="false"
       step="1" />
    <inkscape:path-effect
       effect="powerstroke"
       id="path-effect2492"
       is_visible="true"
       lpeversion="1"
       offset_points="0.77667599,0.77675205"
       sort_points="true"
       interpolator_type="CentripetalCatmullRom"
       interpolator_beta="0.75"
       start_linecap_type="round"
       linejoin_type="spiro"
       miter_limit="4"
       scale_width="1"
       end_linecap_type="round" />
    <inkscape:path-effect
       effect="simplify"
       id="path-effect2490"
       is_visible="true"
       lpeversion="1"
       steps="1"
       threshold="0.0088205129"
       smooth_angles="0"
       helper_size="0"
       simplify_individual_paths="false"
       simplify_just_coalesce="false"
       step="1" />
    <inkscape:path-effect
       effect="powerstroke"
       id="path-effect2485"
       is_visible="true"
       lpeversion="1"
       offset_points="0.77039721,0.77675205"
       sort_points="true"
       interpolator_type="CentripetalCatmullRom"
       interpolator_beta="0.75"
       start_linecap_type="round"
       linejoin_type="spiro"
       miter_limit="4"
       scale_width="1"
       end_linecap_type="round" />
    <inkscape:path-effect
       effect="simplify"
       id="path-effect2483"
       is_visible="true"
       lpeversion="1"
       steps="1"
       threshold="0.0088205129"
       smooth_angles="0"
       helper_size="0"
       simplify_individual_paths="false"
       simplify_just_coalesce="false"
       step="1" />
    <inkscape:path-effect
       effect="powerstroke"
       id="path-effect2478"
       is_visible="true"
       lpeversion="1"
       offset_points="0.48256425,0.77675205"
       sort_points="true"
       interpolator_type="CentripetalCatmullRom"
       interpolator_beta="0.75"
       start_linecap_type="round"
       linejoin_type="spiro"
       miter_limit="4"
       scale_width="1"
       end_linecap_type="round" />
    <inkscape:path-effect
       effect="simplify"
       id="path-effect2476"
       is_visible="true"
       lpeversion="1"
       steps="1"
       threshold="0.0088205129"
       smooth_angles="0"
       helper_size="0"
       simplify_individual_paths="false"
       simplify_just_coalesce="false"
       step="1" />
    <inkscape:path-effect
       effect="powerstroke"
       id="path-effect2471"
       is_visible="true"
       lpeversion="1"
       offset_points="0.49521182,0.77675205"
       sort_points="true"
       interpolator_type="CentripetalCatmullRom"
       interpolator_beta="0.75"
       start_linecap_type="round"
       linejoin_type="spiro"
       miter_limit="4"
       scale_width="1"
       end_linecap_type="round" />
    <inkscape:path-effect
       effect="simplify"
       id="path-effect2469"
       is_visible="true"
       lpeversion="1"
       steps="1"
       threshold="0.0088205129"
       smooth_angles="0"
       helper_size="0"
       simplify_individual_paths="false"
       simplify_just_coalesce="false"
       step="1" />
    <inkscape:path-effect
       effect="powerstroke"
       id="path-effect2464"
       is_visible="true"
       lpeversion="1"
       offset_points="0.44674811,0.77675205"
       sort_points="true"
       interpolator_type="CentripetalCatmullRom"
       interpolator_beta="0.75"
       start_linecap_type="round"
       linejoin_type="spiro"
       miter_limit="4"
       scale_width="1"
       end_linecap_type="round" />
    <inkscape:path-effect
       effect="simplify"
       id="path-effect2462"
       is_visible="true"
       lpeversion="1"
       steps="1"
       threshold="0.0088205129"
       smooth_angles="0"
       helper_size="0"
       simplify_individual_paths="false"
       simplify_just_coalesce="false"
       step="1" />
    <inkscape:path-effect
       effect="powerstroke"
       id="path-effect2457"
       is_visible="true"
       lpeversion="1"
       offset_points="0.44714508,0.77675205"
       sort_points="true"
       interpolator_type="CentripetalCatmullRom"
       interpolator_beta="0.75"
       start_linecap_type="round"
       linejoin_type="spiro"
       miter_limit="4"
       scale_width="1"
       end_linecap_type="round" />
    <inkscape:path-effect
       effect="simplify"
       id="path-effect2455"
       is_visible="true"
       lpeversion="1"
       steps="1"
       threshold="0.0088205129"
       smooth_angles="0"
       helper_size="0"
       simplify_individual_paths="false"
       simplify_just_coalesce="false"
       step="1" />
    <inkscape:path-effect
       effect="powerstroke"
       id="path-effect2450"
       is_visible="true"
       lpeversion="1"
       offset_points="0.72648059,0.77675205"
       sort_points="true"
       interpolator_type="CentripetalCatmullRom"
       interpolator_beta="0.75"
       start_linecap_type="round"
       linejoin_type="spiro"
       miter_limit="4"
       scale_width="1"
       end_linecap_type="round" />
    <inkscape:path-effect
       effect="simplify"
       id="path-effect2448"
       is_visible="true"
       lpeversion="1"
       steps="1"
       threshold="0.0088205129"
       smooth_angles="0"
       helper_size="0"
       simplify_individual_paths="false"
       simplify_just_coalesce="false"
       step="1" />
    <inkscape:path-effect
       effect="powerstroke"
       id="path-effect2443"
       is_visible="true"
       lpeversion="1"
       offset_points="1.0713846,0.77675205"
       sort_points="true"
       interpolator_type="CentripetalCatmullRom"
       interpolator_beta="0.75"
       start_linecap_type="round"
       linejoin_type="spiro"
       miter_limit="4"
       scale_width="1"
       end_linecap_type="round" />
    <inkscape:path-effect
       effect="simplify"
       id="path-effect2441"
       is_visible="true"
       lpeversion="1"
       steps="1"
       threshold="0.0088205129"
       smooth_angles="0"
       helper_size="0"
       simplify_individual_paths="false"
       simplify_just_coalesce="false"
       step="1" />
    <inkscape:path-effect
       effect="powerstroke"
       id="path-effect2436"
       is_visible="true"
       lpeversion="1"
       offset_points="0.92793293,0.77675205"
       sort_points="true"
       interpolator_type="CentripetalCatmullRom"
       interpolator_beta="0.75"
       start_linecap_type="round"
       linejoin_type="spiro"
       miter_limit="4"
       scale_width="1"
       end_linecap_type="round" />
    <inkscape:path-effect
       effect="simplify"
       id="path-effect2434"
       is_visible="true"
       lpeversion="1"
       steps="1"
       threshold="0.0088205129"
       smooth_angles="0"
       helper_size="0"
       simplify_individual_paths="false"
       simplify_just_coalesce="false"
       step="1" />
    <inkscape:path-effect
       effect="powerstroke"
       id="path-effect2429"
       is_visible="true"
       lpeversion="1"
       offset_points="0.63563031,1.1671806"
       sort_points="true"
       interpolator_type="CentripetalCatmullRom"
       interpolator_beta="0.75"
       start_linecap_type="round"
       linejoin_type="spiro"
       miter_limit="4"
       scale_width="1"
       end_linecap_type="round" />
    <inkscape:path-effect
       effect="simplify"
       id="path-effect2427"
       is_visible="true"
       lpeversion="1"
       steps="1"
       threshold="0.0088205129"
       smooth_angles="0"
       helper_size="0"
       simplify_individual_paths="false"
       simplify_just_coalesce="false"
       step="1" />
    <inkscape:path-effect
       effect="powerstroke"
       id="path-effect2422"
       is_visible="true"
       lpeversion="1"
       offset_points="0.6517645,0.77675205"
       sort_points="true"
       interpolator_type="CentripetalCatmullRom"
       interpolator_beta="0.75"
       start_linecap_type="round"
       linejoin_type="spiro"
       miter_limit="4"
       scale_width="1"
       end_linecap_type="round" />
    <inkscape:path-effect
       effect="simplify"
       id="path-effect2420"
       is_visible="true"
       lpeversion="1"
       steps="1"
       threshold="0.0088205129"
       smooth_angles="0"
       helper_size="0"
       simplify_individual_paths="false"
       simplify_just_coalesce="false"
       step="1" />
    <inkscape:path-effect
       effect="powerstroke"
       id="path-effect2415"
       is_visible="true"
       lpeversion="1"
       offset_points="0.41339515,0.77675205"
       sort_points="true"
       interpolator_type="CentripetalCatmullRom"
       interpolator_beta="0.75"
       start_linecap_type="round"
       linejoin_type="spiro"
       miter_limit="4"
       scale_width="1"
       end_linecap_type="round" />
    <inkscape:path-effect
       effect="simplify"
       id="path-effect2413"
       is_visible="true"
       lpeversion="1"
       steps="1"
       threshold="0.0088205129"
       smooth_angles="0"
       helper_size="0"
       simplify_individual_paths="false"
       simplify_just_coalesce="false"
       step="1" />
    <inkscape:path-effect
       effect="powerstroke"
       id="path-effect2408"
       is_visible="true"
       lpeversion="1"
       offset_points="0.59456455,0.77675205"
       sort_points="true"
       interpolator_type="CentripetalCatmullRom"
       interpolator_beta="0.75"
       start_linecap_type="round"
       linejoin_type="spiro"
       miter_limit="4"
       scale_width="1"
       end_linecap_type="round" />
    <inkscape:path-effect
       effect="simplify"
       id="path-effect2406"
       is_visible="true"
       lpeversion="1"
       steps="1"
       threshold="0.0088205129"
       smooth_angles="0"
       helper_size="0"
       simplify_individual_paths="false"
       simplify_just_coalesce="false"
       step="1" />
    <inkscape:path-effect
       effect="powerstroke"
       id="path-effect2401"
       is_visible="true"
       lpeversion="1"
       offset_points="0.5885138,0.77675205"
       sort_points="true"
       interpolator_type="CentripetalCatmullRom"
       interpolator_beta="0.75"
       start_linecap_type="round"
       linejoin_type="spiro"
       miter_limit="4"
       scale_width="1"
       end_linecap_type="round" />
    <inkscape:path-effect
       effect="simplify"
       id="path-effect2399"
       is_visible="true"
       lpeversion="1"
       steps="1"
       threshold="0.0088205129"
       smooth_angles="0"
       helper_size="0"
       simplify_individual_paths="false"
       simplify_just_coalesce="false"
       step="1" />
    <inkscape:path-effect
       effect="powerstroke"
       id="path-effect2394"
       is_visible="true"
       lpeversion="1"
       offset_points="0.43798775,0.77675205"
       sort_points="true"
       interpolator_type="CentripetalCatmullRom"
       interpolator_beta="0.75"
       start_linecap_type="round"
       linejoin_type="spiro"
       miter_limit="4"
       scale_width="1"
       end_linecap_type="round" />
    <inkscape:path-effect
       effect="simplify"
       id="path-effect2392"
       is_visible="true"
       lpeversion="1"
       steps="1"
       threshold="0.0088205129"
       smooth_angles="0"
       helper_size="0"
       simplify_individual_paths="false"
       simplify_just_coalesce="false"
       step="1" />
    <inkscape:path-effect
       effect="powerstroke"
       id="path-effect2387"
       is_visible="true"
       lpeversion="1"
       offset_points="0.64907446,0.77675205"
       sort_points="true"
       interpolator_type="CentripetalCatmullRom"
       interpolator_beta="0.75"
       start_linecap_type="round"
       linejoin_type="spiro"
       miter_limit="4"
       scale_width="1"
       end_linecap_type="round" />
    <inkscape:path-effect
       effect="simplify"
       id="path-effect2385"
       is_visible="true"
       lpeversion="1"
       steps="1"
       threshold="0.0088205129"
       smooth_angles="0"
       helper_size="0"
       simplify_individual_paths="false"
       simplify_just_coalesce="false"
       step="1" />
    <inkscape:path-effect
       effect="powerstroke"
       id="path-effect2380"
       is_visible="true"
       lpeversion="1"
       offset_points="0.7515988,0.77675205"
       sort_points="true"
       interpolator_type="CentripetalCatmullRom"
       interpolator_beta="0.75"
       start_linecap_type="round"
       linejoin_type="spiro"
       miter_limit="4"
       scale_width="1"
       end_linecap_type="round" />
    <inkscape:path-effect
       effect="simplify"
       id="path-effect2378"
       is_visible="true"
       lpeversion="1"
       steps="1"
       threshold="0.0088205129"
       smooth_angles="0"
       helper_size="0"
       simplify_individual_paths="false"
       simplify_just_coalesce="false"
       step="1" />
    <inkscape:path-effect
       effect="powerstroke"
       id="path-effect2373"
       is_visible="true"
       lpeversion="1"
       offset_points="0.54588265,0.77675205"
       sort_points="true"
       interpolator_type="CentripetalCatmullRom"
       interpolator_beta="0.75"
       start_linecap_type="round"
       linejoin_type="spiro"
       miter_limit="4"
       scale_width="1"
       end_linecap_type="round" />
    <inkscape:path-effect
       effect="simplify"
       id="path-effect2371"
       is_visible="true"
       lpeversion="1"
       steps="1"
       threshold="0.0088205129"
       smooth_angles="0"
       helper_size="0"
       simplify_individual_paths="false"
       simplify_just_coalesce="false"
       step="1" />
    <inkscape:path-effect
       effect="powerstroke"
       id="path-effect2366"
       is_visible="true"
       lpeversion="1"
       offset_points="0.34143796,1.1709712"
       sort_points="true"
       interpolator_type="CentripetalCatmullRom"
       interpolator_beta="0.75"
       start_linecap_type="round"
       linejoin_type="spiro"
       miter_limit="4"
       scale_width="1"
       end_linecap_type="round" />
    <inkscape:path-effect
       effect="simplify"
       id="path-effect2364"
       is_visible="true"
       lpeversion="1"
       steps="1"
       threshold="0.0088205129"
       smooth_angles="0"
       helper_size="0"
       simplify_individual_paths="false"
       simplify_just_coalesce="false"
       step="1" />
    <inkscape:path-effect
       effect="powerstroke"
       id="path-effect2359"
       is_visible="true"
       lpeversion="1"
       offset_points="1.7170496,0.77675205"
       sort_points="true"
       interpolator_type="CentripetalCatmullRom"
       interpolator_beta="0.75"
       start_linecap_type="round"
       linejoin_type="spiro"
       miter_limit="4"
       scale_width="1"
       end_linecap_type="round" />
    <inkscape:path-effect
       effect="simplify"
       id="path-effect2357"
       is_visible="true"
       lpeversion="1"
       steps="1"
       threshold="0.0046153846"
       smooth_angles="0"
       helper_size="0"
       simplify_individual_paths="false"
       simplify_just_coalesce="false"
       step="1" />
    <inkscape:path-effect
       effect="powerstroke"
       id="path-effect2352"
       is_visible="true"
       lpeversion="1"
       offset_points="0.62386365,0.77675205"
       sort_points="true"
       interpolator_type="CentripetalCatmullRom"
       interpolator_beta="0.75"
       start_linecap_type="round"
       linejoin_type="spiro"
       miter_limit="4"
       scale_width="1"
       end_linecap_type="round" />
    <inkscape:path-effect
       effect="simplify"
       id="path-effect2350"
       is_visible="true"
       lpeversion="1"
       steps="1"
       threshold="0.0046153846"
       smooth_angles="0"
       helper_size="0"
       simplify_individual_paths="false"
       simplify_just_coalesce="false"
       step="1" />
    <inkscape:path-effect
       effect="powerstroke"
       id="path-effect2345"
       is_visible="true"
       lpeversion="1"
       offset_points="0.67380086,0.77675205"
       sort_points="true"
       interpolator_type="CentripetalCatmullRom"
       interpolator_beta="0.75"
       start_linecap_type="round"
       linejoin_type="spiro"
       miter_limit="4"
       scale_width="1"
       end_linecap_type="round" />
    <inkscape:path-effect
       effect="simplify"
       id="path-effect2343"
       is_visible="true"
       lpeversion="1"
       steps="1"
       threshold="0.0046153846"
       smooth_angles="0"
       helper_size="0"
       simplify_individual_paths="false"
       simplify_just_coalesce="false"
       step="1" />
    <inkscape:path-effect
       effect="powerstroke"
       id="path-effect2338"
       is_visible="true"
       lpeversion="1"
       offset_points="1.1072133,0.77675205"
       sort_points="true"
       interpolator_type="CentripetalCatmullRom"
       interpolator_beta="0.75"
       start_linecap_type="round"
       linejoin_type="spiro"
       miter_limit="4"
       scale_width="1"
       end_linecap_type="round" />
    <inkscape:path-effect
       effect="simplify"
       id="path-effect2336"
       is_visible="true"
       lpeversion="1"
       steps="1"
       threshold="0.0046153846"
       smooth_angles="0"
       helper_size="0"
       simplify_individual_paths="false"
       simplify_just_coalesce="false"
       step="1" />
    <inkscape:path-effect
       effect="powerstroke"
       id="path-effect2331"
       is_visible="true"
       lpeversion="1"
       offset_points="0.65714825,0.77675205"
       sort_points="true"
       interpolator_type="CentripetalCatmullRom"
       interpolator_beta="0.75"
       start_linecap_type="round"
       linejoin_type="spiro"
       miter_limit="4"
       scale_width="1"
       end_linecap_type="round" />
    <inkscape:path-effect
       effect="simplify"
       id="path-effect2329"
       is_visible="true"
       lpeversion="1"
       steps="1"
       threshold="0.0046153846"
       smooth_angles="0"
       helper_size="0"
       simplify_individual_paths="false"
       simplify_just_coalesce="false"
       step="1" />
    <inkscape:path-effect
       effect="powerstroke"
       id="path-effect2324"
       is_visible="true"
       lpeversion="1"
       offset_points="0.70947247,0.77675205"
       sort_points="true"
       interpolator_type="CentripetalCatmullRom"
       interpolator_beta="0.75"
       start_linecap_type="round"
       linejoin_type="spiro"
       miter_limit="4"
       scale_width="1"
       end_linecap_type="round" />
    <inkscape:path-effect
       effect="simplify"
       id="path-effect2322"
       is_visible="true"
       lpeversion="1"
       steps="1"
       threshold="0.0046153846"
       smooth_angles="0"
       helper_size="0"
       simplify_individual_paths="false"
       simplify_just_coalesce="false"
       step="1" />
    <inkscape:path-effect
       effect="powerstroke"
       id="path-effect2317"
       is_visible="true"
       lpeversion="1"
       offset_points="0.4815262,0.77675205"
       sort_points="true"
       interpolator_type="CentripetalCatmullRom"
       interpolator_beta="0.75"
       start_linecap_type="round"
       linejoin_type="spiro"
       miter_limit="4"
       scale_width="1"
       end_linecap_type="round" />
    <inkscape:path-effect
       effect="simplify"
       id="path-effect2315"
       is_visible="true"
       lpeversion="1"
       steps="1"
       threshold="0.0046153846"
       smooth_angles="0"
       helper_size="0"
       simplify_individual_paths="false"
       simplify_just_coalesce="false"
       step="1" />
    <inkscape:path-effect
       effect="powerstroke"
       id="path-effect2310"
       is_visible="true"
       lpeversion="1"
       offset_points="0.66315132,0.77675205"
       sort_points="true"
       interpolator_type="CentripetalCatmullRom"
       interpolator_beta="0.75"
       start_linecap_type="round"
       linejoin_type="spiro"
       miter_limit="4"
       scale_width="1"
       end_linecap_type="round" />
    <inkscape:path-effect
       effect="simplify"
       id="path-effect2308"
       is_visible="true"
       lpeversion="1"
       steps="1"
       threshold="0.0046153846"
       smooth_angles="0"
       helper_size="0"
       simplify_individual_paths="false"
       simplify_just_coalesce="false"
       step="1" />
    <inkscape:path-effect
       effect="powerstroke"
       id="path-effect2303"
       is_visible="true"
       lpeversion="1"
       offset_points="0.73305157,0.77675205"
       sort_points="true"
       interpolator_type="CentripetalCatmullRom"
       interpolator_beta="0.75"
       start_linecap_type="round"
       linejoin_type="spiro"
       miter_limit="4"
       scale_width="1"
       end_linecap_type="round" />
    <inkscape:path-effect
       effect="simplify"
       id="path-effect2301"
       is_visible="true"
       lpeversion="1"
       steps="1"
       threshold="0.0046153846"
       smooth_angles="0"
       helper_size="0"
       simplify_individual_paths="false"
       simplify_just_coalesce="false"
       step="1" />
    <inkscape:path-effect
       effect="powerstroke"
       id="path-effect2296"
       is_visible="true"
       lpeversion="1"
       offset_points="0.42183626,0.77675205"
       sort_points="true"
       interpolator_type="CentripetalCatmullRom"
       interpolator_beta="0.75"
       start_linecap_type="round"
       linejoin_type="spiro"
       miter_limit="4"
       scale_width="1"
       end_linecap_type="round" />
    <inkscape:path-effect
       effect="simplify"
       id="path-effect2294"
       is_visible="true"
       lpeversion="1"
       steps="1"
       threshold="0.0046153846"
       smooth_angles="0"
       helper_size="0"
       simplify_individual_paths="false"
       simplify_just_coalesce="false"
       step="1" />
    <inkscape:path-effect
       effect="powerstroke"
       id="path-effect2289"
       is_visible="true"
       lpeversion="1"
       offset_points="0.42779947,0.77675205"
       sort_points="true"
       interpolator_type="CentripetalCatmullRom"
       interpolator_beta="0.75"
       start_linecap_type="round"
       linejoin_type="spiro"
       miter_limit="4"
       scale_width="1"
       end_linecap_type="round" />
    <inkscape:path-effect
       effect="simplify"
       id="path-effect2287"
       is_visible="true"
       lpeversion="1"
       steps="1"
       threshold="0.0046153846"
       smooth_angles="0"
       helper_size="0"
       simplify_individual_paths="false"
       simplify_just_coalesce="false"
       step="1" />
    <inkscape:path-effect
       effect="powerstroke"
       id="path-effect2282"
       is_visible="true"
       lpeversion="1"
       offset_points="0.63058289,0.77675205"
       sort_points="true"
       interpolator_type="CentripetalCatmullRom"
       interpolator_beta="0.75"
       start_linecap_type="round"
       linejoin_type="spiro"
       miter_limit="4"
       scale_width="1"
       end_linecap_type="round" />
    <inkscape:path-effect
       effect="simplify"
       id="path-effect2280"
       is_visible="true"
       lpeversion="1"
       steps="1"
       threshold="0.0046153846"
       smooth_angles="0"
       helper_size="0"
       simplify_individual_paths="false"
       simplify_just_coalesce="false"
       step="1" />
    <inkscape:path-effect
       effect="powerstroke"
       id="path-effect2275"
       is_visible="true"
       lpeversion="1"
       offset_points="0.54889507,0.77675205"
       sort_points="true"
       interpolator_type="CentripetalCatmullRom"
       interpolator_beta="0.75"
       start_linecap_type="round"
       linejoin_type="spiro"
       miter_limit="4"
       scale_width="1"
       end_linecap_type="round" />
    <inkscape:path-effect
       effect="simplify"
       id="path-effect2273"
       is_visible="true"
       lpeversion="1"
       steps="1"
       threshold="0.0046153846"
       smooth_angles="0"
       helper_size="0"
       simplify_individual_paths="false"
       simplify_just_coalesce="false"
       step="1" />
    <inkscape:path-effect
       effect="powerstroke"
       id="path-effect2268"
       is_visible="true"
       lpeversion="1"
       offset_points="0.78565771,0.77675205"
       sort_points="true"
       interpolator_type="CentripetalCatmullRom"
       interpolator_beta="0.75"
       start_linecap_type="round"
       linejoin_type="spiro"
       miter_limit="4"
       scale_width="1"
       end_linecap_type="round" />
    <inkscape:path-effect
       effect="simplify"
       id="path-effect2266"
       is_visible="true"
       lpeversion="1"
       steps="1"
       threshold="0.0046153846"
       smooth_angles="0"
       helper_size="0"
       simplify_individual_paths="false"
       simplify_just_coalesce="false"
       step="1" />
    <inkscape:path-effect
       effect="powerstroke"
       id="path-effect2261"
       is_visible="true"
       lpeversion="1"
       offset_points="0.80023041,2.1969866"
       sort_points="true"
       interpolator_type="CentripetalCatmullRom"
       interpolator_beta="0.75"
       start_linecap_type="round"
       linejoin_type="spiro"
       miter_limit="4"
       scale_width="1"
       end_linecap_type="round" />
    <inkscape:path-effect
       effect="simplify"
       id="path-effect2259"
       is_visible="true"
       lpeversion="1"
       steps="1"
       threshold="0.0046153846"
       smooth_angles="0"
       helper_size="0"
       simplify_individual_paths="false"
       simplify_just_coalesce="false"
       step="1" />
  </defs>
  <sodipodi:namedview
     id="base"
     pagecolor="#ffffff"
     bordercolor="#666666"
     borderopacity="1.0"
     inkscape:pageopacity="0.0"
     inkscape:pageshadow="2"
     inkscape:zoom="0.49497475"
     inkscape:cx="924.61339"
     inkscape:cy="791.54697"
     inkscape:document-units="mm"
     inkscape:current-layer="layer1"
     inkscape:document-rotation="0"
     showgrid="false"
     inkscape:window-width="1920"
     inkscape:window-height="1051"
     inkscape:window-x="-9"
     inkscape:window-y="-9"
     inkscape:window-maximized="1" />
  <metadata
     id="metadata2253">
    <rdf:RDF>
      <cc:Work
         rdf:about="">
        <dc:format>image/svg+xml</dc:format>
        <dc:type
           rdf:resource="http://purl.org/dc/dcmitype/StillImage" />
        <dc:title />
      </cc:Work>
    </rdf:RDF>
  </metadata>
  <g
     inkscape:label="Capa 1"
     inkscape:groupmode="layer"
     id="layer1"
     style="display:inline">
    <path
       d="m 12.827917,142.3091 c 4.196828,-0.25329 11.166451,-0.72218 22.683879,-1.82203 8.905538,-0.85043 24.77755,-2.7175 43.599509,-4.24142 0.01065,-8.6e-4 0.02128,-0.002 0.03191,-0.003 28.991019,-3.14793 61.184809,-6.67002 92.648259,-9.6007 1.0601,-0.0681 2.30247,-0.23177 3.52608,-0.42356 1.32557,-0.20778 2.7029,-0.46056 3.87969,-0.68442 1.02001,-0.19405 2.41204,-0.47093 3.43205,-0.66497 0.53853,-0.10311 0.94993,-0.17901 1.28402,-0.23651 0.19322,-0.0333 0.35033,-0.0586 0.47971,-0.0779 0.15388,-0.0229 0.26172,-0.0363 0.33728,-0.0441 a 1.1709712,1.1709712 90 0 0 -0.23874,-2.32974 c -0.12074,0.0124 -0.26551,0.0309 -0.44385,0.0575 -0.15078,0.0225 -0.32571,0.0507 -0.53164,0.0862 -0.35494,0.0611 -0.78257,0.14008 -1.32721,0.24437 -1.35522,0.2595 -2.07407,0.40494 -3.42929,0.66443 -1.1684,0.22227 -2.51661,0.46952 -3.80467,0.67142 -1.20467,0.18882 -2.37182,0.34045 -3.3291,0.40111 -0.0115,7.3e-4 -0.023,0.002 -0.0345,0.003 -31.48451,2.93245 -63.69787,6.45663 -92.684941,9.60414 -18.883719,1.52925 -34.732881,3.39469 -43.617163,4.24309 -11.487733,1.09701 -18.430044,1.56387 -22.602339,1.81569 a 1.1709712,1.1709712 90 0 0 0.14109,2.33768 z"
       id="path-1"
       inkscape:path-effect="#path-effect2364;#path-effect2366"
       inkscape:original-d="m 12.757372,141.14026 c 15.040332,-0.64451 31.859571,-3.0106 46.91055,-4.26485 29.486572,-2.45722 58.963808,-6.39506 88.399398,-9.12058 8.99151,-0.83254 18.04096,-1.58745 26.99422,-2.67269 2.38106,-0.28861 12.82104,-2.55439 9.54939,-1.73647"
       style="fill:#7d7d7d;fill-rule:nonzero;stroke:#828282;stroke-width:2;stroke-linecap:butt;stroke-linejoin:miter;stroke-miterlimit:4;stroke-dasharray:none;stroke-opacity:1;fill-opacity:1"
       sodipodi:nodetypes="csssc" />
    <path
       d="m 12.149509,142.02931 c 0.836522,1.50975 1.945118,3.84707 2.793274,7.23469 0.576098,2.301 0.96782,4.80571 1.229014,7.72634 0.08758,0.97933 0.158153,1.97636 0.218236,3.00292 0.194373,3.32098 0.212063,7.86356 0.701632,12.95566 1.359017,22.68718 1.088476,40.97004 1.658897,66.92601 0.09013,5.49842 0.238847,9.6975 0.123699,14.48372 -0.158667,6.59507 -0.809715,10.96904 -1.525632,14.24862 a 0.77675205,0.77675205 90 0 0 1.517762,0.33132 c 0.738136,-3.38137 1.400009,-7.85403 1.560924,-14.54258 0.116149,-4.82778 -0.03385,-9.08014 -0.12354,-14.55087 -0.569323,-25.90653 -0.29998,-44.27145 -1.662226,-67.00313 -5.6e-4,-0.009 -0.0013,-0.0187 -0.0022,-0.028 -0.480312,-4.988 -0.501611,-9.54787 -0.698481,-12.91154 -0.06079,-1.03863 -0.132454,-2.05194 -0.221757,-3.05053 -0.26642,-2.97905 -0.668862,-5.56684 -1.269354,-7.96526 -0.886704,-3.54159 -2.051867,-6.00488 -2.941407,-7.61031 a 0.77675205,0.77675205 90 0 0 -1.358856,0.75292 z"
       id="path-1-8"
       inkscape:path-effect="#path-effect2406;#path-effect2408"
       inkscape:original-d="m 12.828937,141.65285 c 3.918146,6.66291 4.08712,14.91902 4.543582,22.45064 1.261636,20.81699 1.870887,41.68443 1.870887,62.54107 0,10.03399 0.809107,20.17747 0.267269,30.20146 -0.136472,2.52474 -0.200452,4.10927 -0.200452,4.10927 -0.0089,1.33161 -0.09111,1.5944 -0.167043,2.33861 0,0 -1.04698,5.30121 -1.03567,5.47903"
       style="fill:#7d7d7d;fill-rule:nonzero;stroke:#828282;stroke-width:2;stroke-linecap:butt;stroke-linejoin:miter;stroke-miterlimit:4;stroke-dasharray:none;stroke-opacity:1;fill-opacity:1"
       sodipodi:nodetypes="csssssc" />
    <path
       d="m 18.33041,269.86392 c 6.895451,-3.56252 21.187134,-10.54477 42.102819,-16.8135 14.656249,-4.3927 35.081264,-9.2415 63.205211,-12.36965 13.2547,-0.70881 27.3618,-1.0052 41.98525,-0.6304 4.94613,0.23114 9.00395,0.36303 13.09701,0.22583 3.96652,-0.13296 6.86176,-0.49538 8.92937,-0.83826 a 0.77675205,0.77675205 90 0 0 -0.25416,-1.53258 c -5.29857,0.87869 -10.73814,1.1056 -21.70786,0.59282 -0.005,-2.6e-4 -0.0109,-4.6e-4 -0.0164,-6e-4 -14.67258,-0.3763 -28.82379,-0.0789 -42.13844,0.63309 -0.0148,7.9e-4 -0.0296,0.002 -0.0443,0.004 -28.232838,3.13891 -48.756485,8.00865 -63.501672,12.428 -21.036532,6.30496 -35.42045,13.33102 -42.369886,16.92143 a 0.77675205,0.77675205 90 0 0 0.713068,1.38018 z"
       id="path-1-7"
       inkscape:path-effect="#path-effect2413;#path-effect2415"
       inkscape:original-d="m 17.973876,269.17383 c 6.438862,-3.16454 12.517409,-6.22999 19.176588,-8.85331 20.243391,-7.97467 38.131929,-12.66722 59.601105,-16.57071 7.482221,-1.3604 5.082231,-1.03449 12.623261,-2.08673 8.94975,-1.2488 16.35884,-2.2813 25.37161,-2.2813 11.04521,0 21.95858,-0.72056 32.96865,0.0134 6.06647,0.40443 19.18881,-0.10439 19.8079,-0.72353"
       style="fill:#7d7d7d;fill-rule:nonzero;stroke:#828282;stroke-width:2;stroke-linecap:butt;stroke-linejoin:miter;stroke-miterlimit:4;stroke-dasharray:none;stroke-opacity:1;fill-opacity:1"
       sodipodi:nodetypes="csssssc" />
    <path
       d="m 184.2316,123.25501 c -2.15386,9.03139 -5.35923,25.08974 -5.91877,47.42942 -0.18543,7.40352 -0.11144,16.53024 0.60619,27.37527 0.16252,9.29601 0.79816,20.48327 4.1026,31.10553 0.0113,0.0364 0.0244,0.0722 0.0393,0.10738 0.66012,1.56312 1.24242,3.35684 1.74729,4.80908 0.82124,2.36233 1.40735,3.72756 2.06286,4.96094 a 1.1671806,1.1671806 90 0 0 2.06132,-1.09552 c -0.58109,-1.09337 -1.12219,-2.33915 -1.91926,-4.63195 -0.47424,-1.36414 -1.08915,-3.25388 -1.77921,-4.89718 -3.18985,-10.28479 -3.82067,-21.18476 -3.98136,-30.42733 -3.3e-4,-0.019 -0.001,-0.0379 -0.002,-0.0569 -0.71431,-10.7809 -0.78766,-19.84583 -0.6037,-27.1909 0.55447,-22.13742 3.72932,-38.02965 5.85582,-46.94635 a 1.1671806,1.1671806 90 0 0 -2.27068,-0.54152 z"
       id="path-1-6"
       inkscape:path-effect="#path-effect2427;#path-effect2429"
       inkscape:original-d="m 185.36694,123.52577 c -5.3383,22.52898 -6.89995,46.52097 -5.49454,69.7101 0.44409,7.32762 0.1896,14.38612 1.33634,21.64883 0.89889,5.69294 1.72493,11.5418 3.19578,14.52624 0.59176,1.20071 1.40022,4.85393 3.49718,9.08393"
       style="fill:#7d7d7d;fill-rule:nonzero;stroke:#828282;stroke-width:2;stroke-linecap:butt;stroke-linejoin:miter;stroke-miterlimit:4;stroke-dasharray:none;stroke-opacity:1;fill-opacity:1"
       sodipodi:nodetypes="csssc" />
    <path
       d="m 13.516738,142.91391 c 3.253395,0.82487 6.202425,2.02015 12.28881,5.13426 2.071115,1.05969 4.334214,2.23112 6.608053,3.24745 1.620061,0.72412 3.652613,1.55534 5.895558,2.20204 9.322445,3.40941 20.359546,6.87684 31.778406,10.88126 10.443564,3.6624 20.875264,7.7307 30.780325,13.0516 0.0331,0.0178 0.0675,0.0332 0.10292,0.046 0.63333,0.22954 1.27159,0.59707 1.91874,1.02422 0.688,0.45412 1.36888,0.96173 2.02876,1.41759 0.77513,0.53548 1.4704,0.96675 2.1784,1.28328 0.41894,0.1873 0.81254,0.3204 1.18967,0.40742 0.48593,0.11213 0.91104,0.13976 1.27489,0.12528 a 0.77675205,0.77675205 90 0 0 -0.0618,-1.55228 c -0.23387,0.009 -0.52031,-0.007 -0.86384,-0.0867 -0.26877,-0.062 -0.56711,-0.16089 -0.90491,-0.31191 -0.57957,-0.25911 -1.18377,-0.62808 -1.92946,-1.14323 -0.63016,-0.43533 -1.31492,-0.94683 -2.05597,-1.43596 -0.66846,-0.44122 -1.4072,-0.87675 -2.19062,-1.16818 -9.995454,-5.36447 -20.497999,-9.45664 -30.953049,-13.12307 -11.466941,-4.02129 -22.498928,-7.48668 -31.784478,-10.88363 -0.01722,-0.006 -0.03465,-0.012 -0.05227,-0.0171 -2.156559,-0.61993 -4.12552,-1.42341 -5.717385,-2.13492 -2.228161,-0.99591 -4.450057,-2.14572 -6.53437,-3.21217 -6.129796,-3.13632 -9.197612,-4.39078 -12.614626,-5.25713 a 0.77675205,0.77675205 90 0 0 -0.381796,1.50586 z"
       id="path-1-3"
       inkscape:path-effect="#path-effect2483;#path-effect2485"
       inkscape:original-d="m 13.707636,142.16098 c 6.922799,1.53251 14.138757,6.68746 20.770133,9.11357 24.692237,9.14941 51.990047,16.31222 70.291891,27.52877 2.65869,1.67917 1.6257,1.00255 2.52235,1.5702 1.35306,0.85659 1.1307,1.06648 2.23838,0.58465"
       style="fill:#7d7d7d;fill-rule:nonzero;stroke:#828282;stroke-width:2;stroke-linecap:butt;stroke-linejoin:miter;stroke-miterlimit:4;stroke-dasharray:none;stroke-opacity:1;fill-opacity:1"
       sodipodi:nodetypes="cccsc" />
    <path
       d="m 110.25855,181.4358 c 1.81496,-1.34238 5.38549,-4.29061 9.41137,-7.7351 1.63477,-1.39868 3.36629,-2.86317 5.14361,-4.25912 1.21092,-0.95108 2.69082,-2.06607 4.32977,-3.16329 0.0117,-0.008 0.0232,-0.016 0.0345,-0.0245 11.87026,-8.91985 21.86584,-15.89196 36.4889,-26.35564 8.28087,-5.94522 15.6188,-11.89924 19.09466,-14.35892 a 0.77675205,0.77675205 90 0 0 -0.89738,-1.2681 c -3.51215,2.48535 -10.90067,8.47602 -19.1023,14.36436 -14.60027,10.44737 -24.61823,17.43549 -36.50027,26.36368 -1.67537,1.12249 -3.18228,2.25839 -4.40747,3.22068 -1.80446,1.41727 -3.55669,2.89958 -5.19398,4.30043 -4.03803,3.45487 -7.54823,6.35221 -9.32521,7.66651 a 0.77675205,0.77675205 90 0 0 0.92378,1.249 z"
       id="path-1-61"
       style="fill:#7d7d7d;fill-rule:nonzero;stroke:#828282;stroke-width:2;stroke-linecap:butt;stroke-linejoin:miter;stroke-miterlimit:4;stroke-dasharray:none;stroke-opacity:1;fill-opacity:1"
       sodipodi:nodetypes="cssssc"
       inkscape:original-d="m 109.79666,180.8113 c 5.28218,-3.7596 9.22922,-8.00477 14.48367,-11.89696 11.80052,-8.74112 23.71952,-17.58404 35.81412,-25.92514 2.73868,-1.88875 9.23989,-6.81712 11.92338,-8.79443 4.19647,-3.09213 6.59372,-5.26036 9.03295,-6.94622 1.5422,-1.06588 3.26191,-2.34336 3.26191,-2.34336"
       inkscape:path-effect="#path-effect2490;#path-effect2492" />
    <path
       d="m 68.49235,232.35997 c -1.689881,-0.81857 -3.70676,-1.627 -6.650821,-2.55456 -1.983633,-0.62497 -4.270542,-1.25327 -6.777166,-2.01594 -2.008015,-0.61097 -4.301342,-1.3618 -6.498487,-2.34674 -1.931152,-0.86571 -3.93883,-1.97537 -5.823871,-3.50052 -0.325669,-0.28527 -0.637701,-0.59054 -0.935394,-0.91615 -0.547903,-0.59929 -1.07905,-1.30234 -1.565657,-2.12792 -0.617242,-1.04722 -1.151133,-2.27224 -1.55379,-3.68973 -0.672046,-2.36584 -0.940768,-5.15516 -0.689386,-8.11582 0.279322,-2.83379 1.142973,-5.99854 2.821634,-8.79365 0.774087,-1.28893 1.721737,-2.49701 2.858631,-3.53388 1.090551,-0.9946 2.361344,-1.83715 3.827238,-2.43755 0.01299,-0.005 0.02583,-0.011 0.03851,-0.017 1.61135,-0.76437 3.474222,-1.40839 5.374163,-1.6453 0.914069,-0.11397 1.834736,-0.13336 2.736851,-0.0266 0.876669,0.10375 1.737547,0.32679 2.560631,0.69989 0.637808,0.33684 1.212433,0.75927 1.734704,1.25326 0.521022,0.49282 0.988805,1.05581 1.413715,1.67334 0.842009,1.22373 1.494241,2.62941 2.057764,4.06538 0.07565,0.19276 0.158919,0.38936 0.3065,0.53462 0.07379,0.0726 0.16207,0.13115 0.259415,0.16642 0.09734,0.0353 0.203359,0.0469 0.305806,0.0319 0.102447,-0.015 0.200708,-0.0564 0.28388,-0.11809 0.08317,-0.0617 0.150997,-0.14302 0.200905,-0.23373 0.09981,-0.18143 0.123311,-0.39365 0.140601,-0.6 0.16462,-1.96475 0.396351,-3.98784 0.990328,-5.82364 0.295124,-0.91214 0.676339,-1.76678 1.175366,-2.53812 0.499044,-0.77137 1.117704,-1.46235 1.891983,-2.04708 0.0037,-0.003 0.0075,-0.006 0.01117,-0.009 1.192946,-0.93537 2.494089,-1.65919 3.867538,-2.21327 1.383829,-0.55827 2.841727,-0.94445 4.335347,-1.19987 3.005351,-0.51394 6.150103,-0.4973 9.099327,-0.29143 0.939942,0.29064 1.69541,0.77804 2.317584,1.39511 0.655813,0.65043 1.176557,1.4594 1.596934,2.35662 0.430627,0.9191 0.753608,1.92472 1.01138,2.93511 0.263306,1.03209 0.459954,2.07521 0.632126,3.03238 0.373896,2.35084 0.349955,4.65007 0.03751,6.86128 -0.325324,2.30236 -0.965264,4.52225 -1.808118,6.62165 -1.813972,4.51828 -4.593582,8.54741 -7.389897,11.80272 -0.0071,0.008 -0.01402,0.0167 -0.02076,0.0252 -2.218251,2.81355 -4.797163,5.16056 -7.073838,7.07451 -3.055742,2.5689 -5.819292,4.63816 -7.930486,6.3634 z m 0.15289,1.30053 c 2.085072,-1.70391 4.839941,-3.76505 7.947138,-6.37721 2.303348,-1.93637 4.971309,-4.35847 7.283976,-7.28896 2.866615,-3.33915 5.749266,-7.5081 7.642508,-12.22383 0.882196,-2.19739 1.559308,-4.53881 1.904684,-6.98308 0.332278,-2.35158 0.359042,-4.8098 -0.0428,-7.33073 -8.1e-4,-0.005 -0.0017,-0.0102 -0.0026,-0.0152 -0.173279,-0.96358 -0.378411,-2.05636 -0.657191,-3.1491 -0.272077,-1.06647 -0.623872,-2.17281 -1.109914,-3.21018 -0.475432,-1.01473 -1.090614,-1.98814 -1.909729,-2.80053 -0.808275,-0.80165 -1.809327,-1.44039 -3.050984,-1.80596 -0.05353,-0.0158 -0.108611,-0.0257 -0.16427,-0.0297 -3.033617,-0.2158 -6.349318,-0.24495 -9.557478,0.30367 -1.583329,0.27076 -3.150967,0.68382 -4.654683,1.29046 -1.491937,0.60188 -2.92111,1.3944 -4.2394,2.42713 -0.928054,0.70196 -1.666132,1.52933 -2.254429,2.43865 -0.587104,0.90749 -1.021338,1.89074 -1.349097,2.90375 -0.349096,1.07895 -0.580627,2.20326 -0.745809,3.31776 -0.312994,-0.5991 -0.657536,-1.18491 -1.041516,-1.74296 -0.476325,-0.69226 -1.013359,-1.34187 -1.626004,-1.92135 -0.621435,-0.58779 -1.317063,-1.09996 -2.099478,-1.51032 -0.01256,-0.007 -0.0253,-0.0128 -0.03821,-0.0187 -0.990382,-0.45211 -2.016888,-0.71686 -3.042598,-0.83824 -1.045448,-0.12372 -2.093467,-0.0992 -3.111645,0.0278 -2.100573,0.26192 -4.118415,0.9648 -5.828839,1.7743 -1.640626,0.67483 -3.057565,1.61745 -4.26569,2.71929 -1.262802,1.1517 -2.302724,2.48178 -3.143575,3.88187 -1.819474,3.02958 -2.7395,6.42733 -3.036395,9.44651 -3.33e-4,0.003 -6.43e-4,0.007 -9.31e-4,0.0102 -0.266466,3.13109 0.01388,6.11221 0.742479,8.67713 0.437163,1.53896 1.022075,2.88719 1.709842,4.05407 0.542288,0.92004 1.138023,1.70982 1.757438,2.38733 0.339994,0.37188 0.697139,0.72091 1.070563,1.0472 0.0073,0.006 0.01464,0.0126 0.02213,0.0186 2.021384,1.63767 4.158553,2.81506 6.177648,3.72019 2.288393,1.02585 4.656845,1.79928 6.68176,2.41539 2.538437,0.77235 4.812309,1.39697 6.762543,2.01141 2.887821,0.90984 4.832003,1.69187 6.440407,2.47098 z"
       id="path-1-9"
       inkscape:path-effect="#path-effect2497;#path-effect2499"
       inkscape:original-d="m 68.153729,233.05903 c -8.008356,-4.05876 -22.401763,-5.10866 -28.0633,-12.82894 -6.235469,-10.24024 -1.794481,-23.68539 5.078121,-27.52876 1.871384,-1.02075 3.504236,-1.96154 5.61266,-2.40542 5.52952,-1.16411 8.586105,-0.48432 11.759859,4.27631 0.688378,1.03257 1.392612,3.4745 1.603617,3.4745 0.195374,0 0.104679,-4.13376 1.336348,-6.949 2.864318,-6.54702 11.003982,-8.01809 17.372519,-8.01809 0.939693,0 2.97142,-0.13182 4.009043,0.26727 2.807447,1.07979 3.971637,3.46171 4.810852,6.1472 3.950249,12.6408 -2.312871,23.53081 -10.690781,32.60688 -2.924926,3.16867 -6.426193,5.95554 -9.888973,8.55263 -0.735104,0.55132 -3.419478,2.88493 -2.939965,2.40542"
       style="fill:#fb0b4c;fill-rule:nonzero;stroke:#fa234b;stroke-width:2;stroke-linecap:butt;stroke-linejoin:miter;stroke-miterlimit:4;stroke-dasharray:none;stroke-opacity:1;fill-opacity:1"
       sodipodi:nodetypes="cccsssssssssc" />
  </g>
  <g
     inkscape:groupmode="layer"
     id="layer2"
     inkscape:label="Capa 2" />
</svg>
