<?xml version="1.0" encoding="UTF-8" standalone="no"?>
<!-- Created with Inkscape (http://www.inkscape.org/) -->

<svg
   xmlns:dc="http://purl.org/dc/elements/1.1/"
   xmlns:cc="http://creativecommons.org/ns#"
   xmlns:rdf="http://www.w3.org/1999/02/22-rdf-syntax-ns#"
   xmlns:svg="http://www.w3.org/2000/svg"
   xmlns="http://www.w3.org/2000/svg"
   xmlns:sodipodi="http://sodipodi.sourceforge.net/DTD/sodipodi-0.dtd"
   xmlns:inkscape="http://www.inkscape.org/namespaces/inkscape"
   width="210mm"
   height="297mm"
   viewBox="0 0 210 297"
   version="1.1"
   id="svg3758"
   inkscape:version="1.0.1 (3bc2e813f5, 2020-09-07)"
   sodipodi:docname="duda.svg">
  <defs
     id="defs3752">
    <inkscape:path-effect
       effect="powerstroke"
       id="path-effect3876"
       is_visible="true"
       lpeversion="1"
       offset_points="0.35686642,7.3918274"
       sort_points="true"
       interpolator_type="CentripetalCatmullRom"
       interpolator_beta="0.75"
       start_linecap_type="zerowidth"
       linejoin_type="spiro"
       miter_limit="4"
       scale_width="1"
       end_linecap_type="zerowidth" />
    <inkscape:path-effect
       effect="simplify"
       id="path-effect3874"
       is_visible="true"
       lpeversion="1"
       steps="1"
       threshold="0.030718789"
       smooth_angles="0"
       helper_size="0"
       simplify_individual_paths="false"
       simplify_just_coalesce="false"
       step="1" />
    <inkscape:path-effect
       effect="powerstroke"
       id="path-effect3869"
       is_visible="true"
       lpeversion="1"
       offset_points="0.52901767,13.739416"
       sort_points="true"
       interpolator_type="CentripetalCatmullRom"
       interpolator_beta="0.75"
       start_linecap_type="zerowidth"
       linejoin_type="spiro"
       miter_limit="4"
       scale_width="1"
       end_linecap_type="zerowidth" />
    <inkscape:path-effect
       effect="simplify"
       id="path-effect3867"
       is_visible="true"
       lpeversion="1"
       steps="1"
       threshold="0.030718789"
       smooth_angles="0"
       helper_size="0"
       simplify_individual_paths="false"
       simplify_just_coalesce="false"
       step="1" />
    <inkscape:path-effect
       effect="powerstroke"
       id="path-effect3862"
       is_visible="true"
       lpeversion="1"
       offset_points="0.42939833,3.1571212"
       sort_points="true"
       interpolator_type="CentripetalCatmullRom"
       interpolator_beta="0.75"
       start_linecap_type="zerowidth"
       linejoin_type="spiro"
       miter_limit="4"
       scale_width="1"
       end_linecap_type="zerowidth" />
    <inkscape:path-effect
       effect="simplify"
       id="path-effect3860"
       is_visible="true"
       lpeversion="1"
       steps="1"
       threshold="0.030718789"
       smooth_angles="0"
       helper_size="0"
       simplify_individual_paths="false"
       simplify_just_coalesce="false"
       step="1" />
    <inkscape:path-effect
       effect="powerstroke"
       id="path-effect3855"
       is_visible="true"
       lpeversion="1"
       offset_points="0.72277214,3.1571212"
       sort_points="true"
       interpolator_type="CentripetalCatmullRom"
       interpolator_beta="0.75"
       start_linecap_type="zerowidth"
       linejoin_type="spiro"
       miter_limit="4"
       scale_width="1"
       end_linecap_type="zerowidth" />
    <inkscape:path-effect
       effect="simplify"
       id="path-effect3853"
       is_visible="true"
       lpeversion="1"
       steps="1"
       threshold="0.016153846"
       smooth_angles="0"
       helper_size="0"
       simplify_individual_paths="false"
       simplify_just_coalesce="false"
       step="1" />
    <inkscape:path-effect
       effect="powerstroke"
       id="path-effect3848"
       is_visible="true"
       lpeversion="1"
       offset_points="0.77735076,2.1047475"
       sort_points="true"
       interpolator_type="CentripetalCatmullRom"
       interpolator_beta="0.75"
       start_linecap_type="zerowidth"
       linejoin_type="spiro"
       miter_limit="4"
       scale_width="1"
       end_linecap_type="zerowidth" />
    <inkscape:path-effect
       effect="simplify"
       id="path-effect3846"
       is_visible="true"
       lpeversion="1"
       steps="1"
       threshold="0.016153846"
       smooth_angles="0"
       helper_size="0"
       simplify_individual_paths="false"
       simplify_just_coalesce="false"
       step="1" />
    <inkscape:path-effect
       effect="powerstroke"
       id="path-effect3841"
       is_visible="true"
       lpeversion="1"
       offset_points="0.92656134,2.1047475"
       sort_points="true"
       interpolator_type="CentripetalCatmullRom"
       interpolator_beta="0.75"
       start_linecap_type="zerowidth"
       linejoin_type="spiro"
       miter_limit="4"
       scale_width="1"
       end_linecap_type="zerowidth" />
    <inkscape:path-effect
       effect="simplify"
       id="path-effect3839"
       is_visible="true"
       lpeversion="1"
       steps="1"
       threshold="0.016153846"
       smooth_angles="0"
       helper_size="0"
       simplify_individual_paths="false"
       simplify_just_coalesce="false"
       step="1" />
    <inkscape:path-effect
       effect="powerstroke"
       id="path-effect3834"
       is_visible="true"
       lpeversion="1"
       offset_points="2.0804371,2.1047475"
       sort_points="true"
       interpolator_type="CentripetalCatmullRom"
       interpolator_beta="0.75"
       start_linecap_type="zerowidth"
       linejoin_type="spiro"
       miter_limit="4"
       scale_width="1"
       end_linecap_type="zerowidth" />
    <inkscape:path-effect
       effect="simplify"
       id="path-effect3832"
       is_visible="true"
       lpeversion="1"
       steps="1"
       threshold="0.016153846"
       smooth_angles="0"
       helper_size="0"
       simplify_individual_paths="false"
       simplify_just_coalesce="false"
       step="1" />
    <inkscape:path-effect
       effect="powerstroke"
       id="path-effect3827"
       is_visible="true"
       lpeversion="1"
       offset_points="1.1852248,2.1047475"
       sort_points="true"
       interpolator_type="CentripetalCatmullRom"
       interpolator_beta="0.75"
       start_linecap_type="zerowidth"
       linejoin_type="spiro"
       miter_limit="4"
       scale_width="1"
       end_linecap_type="zerowidth" />
    <inkscape:path-effect
       effect="simplify"
       id="path-effect3825"
       is_visible="true"
       lpeversion="1"
       steps="1"
       threshold="0.016153846"
       smooth_angles="0"
       helper_size="0"
       simplify_individual_paths="false"
       simplify_just_coalesce="false"
       step="1" />
    <inkscape:path-effect
       effect="powerstroke"
       id="path-effect3820"
       is_visible="true"
       lpeversion="1"
       offset_points="0.62804732,2.1047475"
       sort_points="true"
       interpolator_type="CentripetalCatmullRom"
       interpolator_beta="0.75"
       start_linecap_type="zerowidth"
       linejoin_type="spiro"
       miter_limit="4"
       scale_width="1"
       end_linecap_type="zerowidth" />
    <inkscape:path-effect
       effect="simplify"
       id="path-effect3818"
       is_visible="true"
       lpeversion="1"
       steps="1"
       threshold="0.016153846"
       smooth_angles="0"
       helper_size="0"
       simplify_individual_paths="false"
       simplify_just_coalesce="false"
       step="1" />
    <inkscape:path-effect
       effect="powerstroke"
       id="path-effect3813"
       is_visible="true"
       lpeversion="1"
       offset_points="0.8181547,2.1047475"
       sort_points="true"
       interpolator_type="CentripetalCatmullRom"
       interpolator_beta="0.75"
       start_linecap_type="zerowidth"
       linejoin_type="spiro"
       miter_limit="4"
       scale_width="1"
       end_linecap_type="zerowidth" />
    <inkscape:path-effect
       effect="simplify"
       id="path-effect3811"
       is_visible="true"
       lpeversion="1"
       steps="1"
       threshold="0.016153846"
       smooth_angles="0"
       helper_size="0"
       simplify_individual_paths="false"
       simplify_just_coalesce="false"
       step="1" />
    <inkscape:path-effect
       effect="powerstroke"
       id="path-effect3806"
       is_visible="true"
       lpeversion="1"
       offset_points="0.63973991,2.1047475"
       sort_points="true"
       interpolator_type="CentripetalCatmullRom"
       interpolator_beta="0.75"
       start_linecap_type="zerowidth"
       linejoin_type="spiro"
       miter_limit="4"
       scale_width="1"
       end_linecap_type="zerowidth" />
    <inkscape:path-effect
       effect="simplify"
       id="path-effect3804"
       is_visible="true"
       lpeversion="1"
       steps="1"
       threshold="0.016153846"
       smooth_angles="0"
       helper_size="0"
       simplify_individual_paths="false"
       simplify_just_coalesce="false"
       step="1" />
    <inkscape:path-effect
       effect="powerstroke"
       id="path-effect3799"
       is_visible="true"
       lpeversion="1"
       offset_points="0.85056203,2.1047475"
       sort_points="true"
       interpolator_type="CentripetalCatmullRom"
       interpolator_beta="0.75"
       start_linecap_type="zerowidth"
       linejoin_type="spiro"
       miter_limit="4"
       scale_width="1"
       end_linecap_type="zerowidth" />
    <inkscape:path-effect
       effect="simplify"
       id="path-effect3797"
       is_visible="true"
       lpeversion="1"
       steps="1"
       threshold="0.016153846"
       smooth_angles="0"
       helper_size="0"
       simplify_individual_paths="false"
       simplify_just_coalesce="false"
       step="1" />
    <inkscape:path-effect
       effect="powerstroke"
       id="path-effect3792"
       is_visible="true"
       lpeversion="1"
       offset_points="0.64527945,2.1047475"
       sort_points="true"
       interpolator_type="CentripetalCatmullRom"
       interpolator_beta="0.75"
       start_linecap_type="zerowidth"
       linejoin_type="spiro"
       miter_limit="4"
       scale_width="1"
       end_linecap_type="zerowidth" />
    <inkscape:path-effect
       effect="simplify"
       id="path-effect3790"
       is_visible="true"
       lpeversion="1"
       steps="1"
       threshold="0.016153846"
       smooth_angles="0"
       helper_size="0"
       simplify_individual_paths="false"
       simplify_just_coalesce="false"
       step="1" />
    <inkscape:path-effect
       effect="powerstroke"
       id="path-effect3785"
       is_visible="true"
       lpeversion="1"
       offset_points="0.53693649,2.1047475"
       sort_points="true"
       interpolator_type="CentripetalCatmullRom"
       interpolator_beta="0.75"
       start_linecap_type="zerowidth"
       linejoin_type="spiro"
       miter_limit="4"
       scale_width="1"
       end_linecap_type="zerowidth" />
    <inkscape:path-effect
       effect="simplify"
       id="path-effect3783"
       is_visible="true"
       lpeversion="1"
       steps="1"
       threshold="0.016153846"
       smooth_angles="0"
       helper_size="0"
       simplify_individual_paths="false"
       simplify_just_coalesce="false"
       step="1" />
    <inkscape:path-effect
       effect="powerstroke"
       id="path-effect3777"
       is_visible="true"
       lpeversion="1"
       offset_points="0.60553972,2.0546344"
       sort_points="true"
       interpolator_type="CentripetalCatmullRom"
       interpolator_beta="0.75"
       start_linecap_type="zerowidth"
       linejoin_type="spiro"
       miter_limit="4"
       scale_width="1"
       end_linecap_type="zerowidth" />
    <inkscape:path-effect
       effect="simplify"
       id="path-effect3775"
       is_visible="true"
       lpeversion="1"
       steps="1"
       threshold="0.016153846"
       smooth_angles="0"
       helper_size="0"
       simplify_individual_paths="false"
       simplify_just_coalesce="false"
       step="1" />
    <inkscape:path-effect
       effect="powerstroke"
       id="path-effect3770"
       is_visible="true"
       lpeversion="1"
       offset_points="0.91389792,2.0546344"
       sort_points="true"
       interpolator_type="CentripetalCatmullRom"
       interpolator_beta="0.75"
       start_linecap_type="zerowidth"
       linejoin_type="spiro"
       miter_limit="4"
       scale_width="1"
       end_linecap_type="zerowidth" />
    <inkscape:path-effect
       effect="simplify"
       id="path-effect3768"
       is_visible="true"
       lpeversion="1"
       steps="1"
       threshold="0.016153846"
       smooth_angles="0"
       helper_size="0"
       simplify_individual_paths="false"
       simplify_just_coalesce="false"
       step="1" />
    <inkscape:path-effect
       effect="powerstroke"
       id="path-effect3763"
       is_visible="true"
       lpeversion="1"
       offset_points="0.96015168,1.5535041"
       sort_points="true"
       interpolator_type="CentripetalCatmullRom"
       interpolator_beta="0.75"
       start_linecap_type="zerowidth"
       linejoin_type="spiro"
       miter_limit="4"
       scale_width="1"
       end_linecap_type="zerowidth" />
    <inkscape:path-effect
       effect="simplify"
       id="path-effect3761"
       is_visible="true"
       lpeversion="1"
       steps="1"
       threshold="0.014897182"
       smooth_angles="0"
       helper_size="0"
       simplify_individual_paths="false"
       simplify_just_coalesce="false"
       step="1" />
  </defs>
  <sodipodi:namedview
     id="base"
     pagecolor="#ffffff"
     bordercolor="#666666"
     borderopacity="1.0"
     inkscape:pageopacity="0.0"
     inkscape:pageshadow="2"
     inkscape:zoom="0.49497475"
     inkscape:cx="115.43434"
     inkscape:cy="657.07318"
     inkscape:document-units="mm"
     inkscape:current-layer="layer4"
     inkscape:document-rotation="0"
     showgrid="false"
     inkscape:window-width="1920"
     inkscape:window-height="1051"
     inkscape:window-x="-9"
     inkscape:window-y="-9"
     inkscape:window-maximized="1" />
  <metadata
     id="metadata3755">
    <rdf:RDF>
      <cc:Work
         rdf:about="">
        <dc:format>image/svg+xml</dc:format>
        <dc:type
           rdf:resource="http://purl.org/dc/dcmitype/StillImage" />
        <dc:title></dc:title>
      </cc:Work>
    </rdf:RDF>
  </metadata>
  <g
     inkscape:label="Capa 1"
     inkscape:groupmode="layer"
     id="layer1"
     style="display:none">
    <path
       d="m 47.573976,88.198944 c -0.469458,-2.771483 -0.834423,-7.042572 -0.192481,-12.042023 0.440843,-3.433282 1.37341,-7.310164 3.134974,-11.137101 1.453754,-3.15823 3.494992,-6.326925 6.312299,-9.099137 1.657757,-1.631223 3.603514,-3.143838 5.882728,-4.432177 1.092081,-0.617305 2.317295,-1.215108 3.688482,-1.754856 0.06074,-0.02391 0.119201,-0.05312 0.177448,-0.0826 6.356532,-3.21667 15.999787,-7.082216 26.513511,-7.878282 4.352226,-0.329537 8.912523,-0.131587 13.384973,0.939633 4.08597,0.978651 8.1563,2.699906 11.94367,5.484167 1.6798,1.61394 3.04462,3.373355 4.11413,5.255223 1.0634,1.871117 1.83877,3.870368 2.33782,5.974752 0.9673,4.078906 0.89262,8.547074 -0.1324,13.133704 -0.98769,4.419584 -2.84318,8.870633 -5.37097,12.987193 -2.45629,4.000112 -5.51498,7.627972 -8.90108,10.494186 -0.0202,0.01709 -0.0404,0.03412 -0.0599,0.05202 -2.61665,2.407341 -5.52425,4.449489 -8.66003,6.330989 -3.102527,1.86155 -6.343886,3.51732 -9.704241,5.22509 -3.298864,1.67652 -6.691178,3.39269 -9.955464,5.32112 -3.242267,1.91543 -6.392442,4.05915 -9.294472,6.64162 -8.267696,5.742 -14.166299,13.9038 -17.439671,22.89853 -3.373371,9.26952 -3.93693,19.32544 -1.647762,28.7033 1.765543,6.99082 3.57224,13.68876 6.005841,20.14261 2.640505,7.00255 5.821503,13.15939 9.915969,18.47996 0.0228,0.0296 0.04468,0.0603 0.07181,0.086 0.02713,0.0257 0.06099,0.0431 0.09589,0.0565 1.937441,0.74377 3.533544,1.32056 4.505873,1.69809 -0.934179,-0.52418 -2.228347,-1.34844 -3.920588,-2.49282 -3.857012,-5.30904 -6.807499,-11.41921 -9.215739,-18.35411 -2.229915,-6.42139 -3.845536,-13.08785 -5.422209,-20.09809 -2.020099,-9.00482 -1.291225,-18.57411 2.067352,-27.30263 3.272666,-8.50524 8.998415,-16.07587 16.828734,-21.29571 0.0529,-0.0353 0.1025,-0.0752 0.15081,-0.11647 2.770662,-2.36994 5.799393,-4.3462 8.977976,-6.13628 3.192282,-1.79779 6.517221,-3.39778 9.868782,-5.01942 3.37723,-1.63407 6.765953,-3.28287 10.034073,-5.16294 3.30226,-1.8997 6.46914,-4.02866 9.37368,-6.606394 3.77458,-3.11184 7.15284,-7.03356 9.86563,-11.341908 2.79648,-4.441242 4.89678,-9.307125 6.04661,-14.22511 1.1934,-5.104384 1.36272,-10.257829 0.25394,-15.107794 -0.5728,-2.505505 -1.48262,-4.912374 -2.75058,-7.17828 -1.30197,-2.326691 -2.9682,-4.481026 -5.00227,-6.431708 -0.0665,-0.0638 -0.13728,-0.123032 -0.21104,-0.17831 -4.35382,-3.262642 -9.03886,-5.265155 -13.69479,-6.388849 -5.03326,-1.214761 -10.090246,-1.417681 -14.814623,-1.044672 -11.341737,0.895477 -21.503036,5.124447 -28.068466,8.654896 -1.506821,0.648206 -2.853359,1.362881 -4.052062,2.102723 -2.569383,1.585829 -4.709123,3.441043 -6.474748,5.415422 -2.99721,3.351579 -4.948843,7.077917 -6.180507,10.627953 -1.492417,4.301605 -1.988008,8.497528 -2.013226,12.064682 -0.03668,5.188835 0.912181,9.451781 1.626308,12.137293 z"
       id="path-1"
       inkscape:path-effect="#path-effect3768;#path-effect3770"
       inkscape:original-d="m 47.573976,88.198944 c -0.626811,-4.182923 -0.534539,-7.596497 -0.534539,-11.759859 0,-5.304439 0.403967,-10.294982 3.207234,-14.967094 14.584963,-24.308271 77.508159,-35.781874 77.508159,4.276313 0,15.960965 -12.2886,31.098822 -25.65787,39.021346 -2.334791,1.38358 -5.074224,1.95796 -7.483547,3.20724 -14.521068,7.52944 -31.926672,18.14223 -37.952273,34.2105 -7.218303,19.24881 -0.262522,38.63231 6.949008,56.66114 1.072874,2.68219 4.33891,8.74494 6.414468,10.69078 0.109548,0.1027 7.66712,3.83356 4.276313,2.13816"
       style="fill:#000000;fill-rule:nonzero;stroke:none;stroke-width:1px;stroke-linecap:butt;stroke-linejoin:miter;stroke-opacity:1" />
    <path
       d="m 87.664405,229.85179 c -0.192898,-0.90007 -0.168806,-2.25868 0.288469,-3.85847 0.290696,-1.01701 0.748957,-2.11339 1.391932,-3.24667 0.230056,-0.40549 0.48425,-0.81638 0.762257,-1.22772 0.321936,-0.47633 0.710632,-1.00476 1.18255,-1.53901 0.64911,-0.73483 1.457573,-1.48158 2.426863,-2.07979 0.02343,-0.0145 0.04573,-0.0307 0.06883,-0.0456 0.422624,-0.27412 0.926751,-0.52334 1.500264,-0.70017 0.514445,-0.15862 1.067519,-0.25314 1.625482,-0.25524 0.516419,-0.002 1.024865,0.0755 1.494687,0.24554 0.441048,0.15966 0.868903,0.40826 1.248825,0.78138 0.0025,0.002 0.0048,0.005 0.007,0.008 0.0022,0.003 0.0045,0.005 0.0069,0.008 1.453433,1.51221 2.460993,3.54434 2.892843,5.87158 0.42044,2.26579 0.26799,4.68975 -0.45729,6.88672 l 0.026,-0.0628 c -0.38526,1.01756 -0.98447,1.98884 -1.74478,2.85173 -0.774356,0.87883 -1.700494,1.62798 -2.707598,2.19642 -1.038821,0.58635 -2.149784,0.97303 -3.266779,1.12791 -1.169003,0.16209 -2.339282,0.0702 -3.459394,-0.30175 -1.349911,-0.45233 -2.493225,-1.17996 -3.437986,-2.05728 -1.04087,-0.96658 -1.838423,-2.1117 -2.42137,-3.28584 -0.676877,-1.36334 -1.062523,-2.7576 -1.245913,-4.02954 -0.241904,-1.67778 -0.134483,-3.13096 0.07637,-4.23615 -0.270796,1.08852 -0.48668,2.54241 -0.376624,4.26719 0.0834,1.30707 0.356954,2.77912 0.939992,4.26638 0.501366,1.27892 1.240091,2.58633 2.282055,3.74758 0.946794,1.05518 2.157494,2.00296 3.663857,2.65945 1.285997,0.57187 2.684356,0.83171 4.127987,0.77889 1.37497,-0.0503 2.766186,-0.38392 4.092778,-0.9704 1.28348,-0.56742 2.502383,-1.37027 3.565453,-2.36805 1.04147,-0.97751 1.93955,-2.14859 2.58539,-3.46526 0.005,-0.0102 0.009,-0.0206 0.0135,-0.0312 0.004,-0.0106 0.008,-0.0212 0.0126,-0.0316 1.12747,-2.58833 1.5817,-5.54831 1.28176,-8.43797 -0.3077,-2.96443 -1.40678,-5.83005 -3.34885,-8.13113 l 0.0139,0.0158 c -0.74486,-0.91751 -1.64641,-1.5921 -2.60829,-2.0521 -1.008009,-0.48206 -2.065314,-0.72139 -3.079337,-0.78327 -1.091836,-0.0666 -2.147525,0.0706 -3.103088,0.34187 -1.062593,0.3017 -2.012216,0.77147 -2.810416,1.33699 -1.436395,0.94696 -2.5427,2.10158 -3.34437,3.20082 -0.595186,0.81611 -1.036255,1.61878 -1.352805,2.34432 -0.273652,0.62723 -0.479029,1.25319 -0.624844,1.8641 -0.409903,1.71734 -0.34263,3.27009 -0.05972,4.53035 0.438863,1.95493 1.349791,3.14181 1.870881,3.86626 z"
       id="path-1-3"
       inkscape:path-effect="#path-effect3775;#path-effect3777"
       inkscape:original-d="m 87.664405,229.85179 c -2.240599,-4.54119 0.447966,-11.28028 4.810852,-13.89801 10.702843,-6.42171 15.551103,11.71038 9.087163,18.17433 -8.969839,8.96984 -19.849209,-0.17822 -17.639788,-11.22532"
       style="fill:#000000;fill-rule:nonzero;stroke:none;stroke-width:1px;stroke-linecap:butt;stroke-linejoin:miter;stroke-opacity:1" />
  </g>
  <g
     inkscape:groupmode="layer"
     id="layer4"
     inkscape:label="Capa 2">
    <path
       d="m 43.365256,82.532799 c 0.440746,-3.426014 1.846422,-7.761293 4.407624,-12.108994 1.793224,-3.044039 4.032087,-5.905507 6.760806,-8.633899 4.166426,-4.165926 9.379769,-7.918386 15.611352,-11.7509 0.6399,-0.393548 1.292736,-0.789158 1.958188,-1.18692 4.153458,-2.482656 9.417867,-5.416344 16.228178,-8.277152 5.966492,-2.506346 12.742626,-4.790164 20.026706,-6.482067 0.22651,-0.05261 0.45313,-0.105078 0.67693,-0.16821 5.41475,-1.52743 12.09172,-2.361551 19.41789,-1.917767 6.67867,0.404561 13.51175,1.858921 19.62334,4.483039 5.75094,2.469264 10.59748,5.860249 14.0292,10.081895 1.66612,2.04963 3.05623,4.362681 4.06993,6.988157 1.00235,2.596064 1.68096,5.612435 1.82857,9.127911 0.007,0.167967 0.004,0.336118 -5.5e-4,0.504173 -0.005,0.168056 0.004,0.336247 0.0247,0.503107 0.45859,3.73082 0.38938,7.117375 -0.0988,10.249078 -0.48761,3.127978 -1.4117,6.120135 -2.76144,9.047461 -2.7439,5.950996 -7.20478,11.543713 -13.05823,17.168889 -5.92245,5.69148 -12.8192,10.99624 -19.82574,16.41353 -7.23968,5.59755 -14.28873,11.08816 -20.28365,17.08002 l 0.46073,-0.3687 c -6.88458,5.65447 -11.93219,12.0303 -15.560357,18.54199 -3.962906,7.11246 -6.251143,14.41348 -7.458029,21.30069 -3.237685,18.47614 1.022073,35.13868 3.869739,44.13043 -2.110398,-9.51098 -3.931974,-25.98654 1.646452,-42.75507 2.046734,-6.15241 5.075505,-12.24948 9.383665,-17.82649 3.93018,-5.08769 8.91944,-9.73544 15.19795,-13.60071 0.0839,-0.0516 0.16319,-0.11059 0.23608,-0.17686 0.0729,-0.0663 0.14645,-0.13191 0.22465,-0.19184 6.00914,-4.60545 12.97109,-8.80814 20.88093,-13.57449 7.36255,-4.43656 15.63263,-9.4127 23.0421,-15.06466 7.34805,-5.6051 14.51151,-12.35044 19.74114,-20.880262 2.6298,-4.289364 4.76262,-9.016216 6.18389,-14.23724 1.42799,-5.245707 2.09994,-10.853019 1.915,-16.833588 l 0.0242,1.00728 C 192.11086,57.198471 191.524,51.547656 190.10222,46.226946 188.66346,40.84265 186.40406,35.92539 183.52279,31.506898 177.60704,22.434952 169.27259,15.747697 160.4294,11.115208 151.0675,6.2109901 140.85339,3.4407287 131.13148,2.3660295 120.62937,1.2050838 110.43191,1.9767049 101.43081,4.3220559 92.111552,6.3765814 83.375888,9.4740658 75.757727,13.204911 c -8.825928,4.322326 -15.741261,9.282177 -20.821451,14.19066 -0.810834,0.783428 -1.591145,1.581189 -2.340686,2.391735 -7.50495,8.115793 -11.492458,17.004525 -12.918752,25.23963 -0.909413,5.250751 -0.74894,9.988952 -0.124942,14.063566 0.875579,5.717403 2.717105,10.358946 3.81336,13.442297 z"
       id="path-1-8"
       inkscape:path-effect="#path-effect3867;#path-effect3869"
       inkscape:original-d="M 43.365256,82.532799 C 42.76941,75.741487 44.454357,69.360534 45.994051,62.816836 49.140244,49.445514 56.830118,40.929898 68.996009,34.557287 c 7.203627,-3.773328 14.103868,-8.236755 21.68756,-11.172378 24.044181,-9.307426 57.101591,-9.425733 76.892251,9.200782 4.20894,3.961347 9.37738,11.296803 10.51519,17.744368 2.11843,12.004425 3.57846,21.117046 -1.3144,32.85994 -9.22224,22.133381 -30.69793,32.109141 -48.63271,45.346721 -35.851794,26.46203 -43.440996,45.67454 -34.831537,88.72184"
       style="fill:#808080;fill-opacity:1;fill-rule:nonzero;stroke:none;stroke-width:11.8935;stroke-linecap:butt;stroke-linejoin:miter;stroke-miterlimit:4;stroke-dasharray:none;stroke-opacity:1"
       inkscape:export-xdpi="96"
       inkscape:export-ydpi="96" />
    <path
       d="m 91.340768,264.57686 c 0.02385,-1.38792 0.866644,-3.25981 2.269056,-4.85878 0.879544,-1.00282 1.832258,-1.75621 2.87983,-2.50559 0.662205,-0.47371 1.327702,-0.9265 2.010684,-1.43644 0.638438,-0.47669 1.508952,-1.16995 2.486882,-1.79871 1.33199,-0.85641 2.90216,-1.62067 4.55336,-1.90486 0.66817,-0.11499 1.29199,-0.13977 1.8624,-0.0813 0.51551,0.0529 1.03695,0.17816 1.55639,0.41671 l -0.24925,-0.14074 c 1.05804,0.53515 2.27017,1.38065 3.44872,2.5702 1.09021,1.10038 2.03786,2.38302 2.72461,3.7316 0.64831,1.27311 1.01955,2.51705 1.11304,3.63565 0.0456,0.54556 0.0283,1.09377 -0.0746,1.63971 -0.10201,0.54138 -0.2964,1.12571 -0.64464,1.74334 l 0.0583,-0.0711 c -0.78003,1.30536 -1.89697,2.50443 -3.35266,3.52037 -1.46065,1.0194 -3.19859,1.80767 -5.09606,2.30077 -1.92968,0.50146 -3.95767,0.68023 -5.93258,0.52609 -2.041668,-0.15935 -4.000509,-0.67292 -5.740912,-1.52319 l 0.345327,0.27127 c -0.799902,-0.32459 -1.569144,-0.80215 -2.346535,-1.38722 -0.830344,-0.62492 -1.660811,-1.3678 -2.426546,-2.04894 -0.95284,-0.84759 -1.710498,-1.51223 -2.564768,-2.15836 -1.121841,-0.84851 -2.010123,-1.35162 -2.794798,-1.75488 0.61238,0.61426 1.201081,1.4552 1.750007,2.61877 0.414201,0.878 0.746049,1.79895 1.138137,2.94724 0.308496,0.90348 0.696131,2.07744 1.152924,3.17092 0.430337,1.03014 1.001907,2.19456 1.827959,3.32923 0.02173,0.0298 0.04449,0.0592 0.07169,0.0841 0.0272,0.025 0.05808,0.0456 0.08987,0.0643 0.03179,0.0188 0.06437,0.0362 0.09538,0.0562 0.03101,0.02 0.06004,0.0429 0.08839,0.0666 2.15506,1.79707 4.735044,3.19365 7.593655,4.10944 2.747802,0.88028 5.739672,1.31084 8.791982,1.21923 2.98889,-0.0897 6.0633,-0.6822 8.9911,-1.86947 2.92135,-1.18467 5.72006,-2.97674 8.0697,-5.43713 0.0106,-0.0111 0.0203,-0.023 0.0294,-0.0354 0.009,-0.0124 0.0185,-0.0245 0.0289,-0.0358 1.30024,-1.42276 2.35164,-2.98463 3.15384,-4.65245 0.80897,-1.6819 1.34344,-3.42761 1.63986,-5.18491 0.60534,-3.58884 0.20594,-7.12883 -0.74661,-10.29645 -0.99884,-3.32154 -2.63522,-6.34893 -4.5805,-8.9048 -2.10047,-2.75978 -4.63154,-5.06793 -7.37473,-6.76317 -0.0812,-0.0502 -0.16602,-0.0941 -0.24925,-0.14075 -2.4265,-1.3614 -4.93712,-2.13868 -7.36554,-2.4739 -2.60137,-0.35909 -5.08113,-0.20915 -7.31012,0.23577 -5.242571,1.04643 -9.345279,3.73435 -12.0344,6.38421 -2.162529,2.13096 -3.57175,4.36624 -4.394848,6.31766 -0.833087,1.97511 -1.176292,3.91034 -1.170608,5.66288 0.0088,2.71799 0.841951,4.89469 1.863237,6.46974 1.612463,2.48677 3.817891,3.65183 4.765417,4.3722 z"
       id="path-1-88"
       inkscape:path-effect="#path-effect3874;#path-effect3876"
       inkscape:original-d="m 91.340768,264.57686 c -6.507602,-14.06019 13.856092,-28.20463 24.973562,-17.08717 16.35589,16.3559 0.38854,33.32215 -19.058774,27.60235 -6.301011,-1.85324 -7.009175,-8.21427 -11.829578,-11.82958"
       style="fill:#808080;fill-opacity:1;fill-rule:nonzero;stroke:none;stroke-width:11.8935;stroke-linecap:butt;stroke-linejoin:miter;stroke-miterlimit:4;stroke-dasharray:none;stroke-opacity:1"
       inkscape:export-xdpi="96"
       inkscape:export-ydpi="96" />
  </g>
</svg>
